<svg width="101" height="100" viewBox="0 0 101 100" fill="none" xmlns="http://www.w3.org/2000/svg">
<path d="M46.3717 11.2281C42.9487 11.7464 39.2694 13.0204 36.5969 14.5966C33.2654 16.5832 30.776 18.7857 27.9753 22.2838C23.692 27.6172 21.4222 32.8644 20.2507 40.0332C19.6283 43.8984 19.5551 49.383 20.0676 52.6652C21.5869 62.2093 26.6757 70.4578 34.5834 76.2016C36.6701 77.7131 40.2396 79.4837 42.3996 80.0883C46.3168 81.1464 50.8381 81.4487 54.6455 80.8441C57.1899 80.4554 58.3431 80.1099 60.8692 79.0087C63.2488 77.9506 65.0061 76.8494 67.0745 75.1435C70.2962 72.4444 70.6989 71.6454 69.6372 70.1555L69.1246 69.3998L68.4108 70.1555C65.7199 73.0274 61.1254 75.9209 56.9702 77.3676L55.9818 77.7131L58.0319 75.2947C59.1485 73.9559 60.5763 71.9909 61.1986 70.9113L62.3152 68.9679L61.2536 68.7304C60.6678 68.6008 59.9905 68.4281 59.7343 68.3417C59.3499 68.2121 59.2217 68.2985 58.9471 68.8599C58.4346 69.8748 56.1831 72.9194 54.8286 74.4309C53.6021 75.7913 51.3506 77.8426 51.2408 77.6915C51.2042 77.6483 51.131 74.4741 51.0761 70.6738L50.9845 63.7208L51.5154 63.5912C51.8083 63.5265 52.0462 63.3969 52.0462 63.2889C52.0462 63.181 51.5886 62.4252 51.0211 61.6047C50.4537 60.7841 49.6849 59.6613 49.3005 59.0999L48.6049 58.085L48.6232 59.1431C48.6232 59.7261 48.5683 60.2875 48.4951 60.3739C48.4219 60.4818 45.8958 60.5682 42.8938 60.6114L37.4389 60.6762L37.0545 58.9271C36.2491 55.4507 35.7732 51.4775 35.7549 48.2818V47.4828H41.1365C44.1019 47.4828 46.5731 47.4181 46.6097 47.3101C46.6463 47.2237 46.7378 46.5543 46.811 45.7986L46.9392 44.4598H41.4294H35.9379V43.6177C35.9379 41.1345 36.7251 35.0452 37.3474 32.6268L37.6586 31.504H42.6375C45.3649 31.504 47.8544 31.4392 48.1656 31.3744L48.7147 31.2449L48.8429 33.836L48.971 36.4056L50.1425 34.9805L51.314 33.5769L51.2042 32.4757L51.0944 31.3744H52.1011C52.9432 31.3744 53.2726 31.2449 54.1696 30.5755C54.7736 30.122 55.634 29.4958 56.1099 29.1719C56.5858 28.848 56.9885 28.5242 56.9885 28.4162C56.9885 28.3298 55.6706 28.265 54.0598 28.265H51.131V21.2257V14.208L52.0645 14.791C54.9201 16.648 58.581 21.4416 60.4481 25.8466C60.7776 26.6024 61.1254 27.2502 61.2536 27.2933C61.3817 27.3581 61.9858 27.3149 62.6264 27.2286L63.7796 27.0774L62.9742 25.134C61.5098 21.5928 60.0088 19.1096 57.556 16.1082C56.897 15.3092 56.4211 14.6614 56.476 14.6614C56.897 14.6614 60.8142 16.3673 62.2054 17.1446C65.6467 19.088 69.4358 22.6293 71.7972 26.1057L73.0419 27.9411L70.9185 28.0491L68.7952 28.1571L69.8019 28.6753C70.3511 28.9344 71.4494 29.647 72.2365 30.2516C73.0236 30.8346 73.9571 31.3744 74.3049 31.4392C74.8541 31.5472 75.2385 31.9574 76.8127 34.0952L78.6798 36.6215L78.7347 35.693C78.7713 34.9589 78.6066 34.2463 78.0391 32.6268C76.4649 28.2866 74.7625 25.4363 71.2846 21.3337C66.4704 15.6763 62.0041 12.934 55.396 11.6168C52.0462 10.969 49.0076 10.8179 46.3717 11.2281ZM43.3514 15.0285C40.9352 17.4901 39.9284 18.9368 38.3359 22.219C37.622 23.7089 36.8349 25.6307 36.5969 26.516L36.1759 28.0923L32.2221 28.2003C30.0438 28.265 28.0669 28.265 27.7923 28.1787C27.3347 28.0491 27.3347 28.0275 27.6092 27.4013C27.774 27.0342 28.378 26.0841 28.9638 25.2852C32.46 20.5347 35.7366 17.922 41.3379 15.5036C42.6375 14.9205 43.7541 14.4671 43.809 14.4671C43.8639 14.4671 43.6626 14.7046 43.3514 15.0285ZM48.6049 17.0798C48.6232 18.4186 48.6415 21.4848 48.6415 23.8816L48.6598 28.265H43.6626C40.8986 28.265 38.6837 28.2003 38.7203 28.0923C40.7887 23.0395 42.2714 20.2972 43.9738 18.3322C45.2185 16.8855 47.8544 14.6614 48.312 14.6614C48.5134 14.6614 48.5683 15.1581 48.6049 17.0798ZM35.0776 31.4392C35.1325 31.5472 34.9312 32.4325 34.6566 33.4474C34.0708 35.4987 33.6315 38.6513 33.4485 42.1062L33.3203 44.4166L27.8655 44.3734C22.5022 44.3518 22.4107 44.3518 22.4839 43.92C22.5205 43.6825 22.5937 42.6892 22.6669 41.7175C22.7768 39.6446 23.6371 36.1249 24.6988 33.4042C25.2845 31.8711 25.5042 31.504 25.8703 31.4392C26.7123 31.2881 35.0044 31.2881 35.0776 31.4392ZM33.3936 52.0174C33.6132 54.9756 33.8878 56.7894 34.4552 58.9271C34.6566 59.6829 34.803 60.3307 34.7847 60.3523C34.7664 60.3739 32.6065 60.4602 29.9889 60.525L25.2296 60.6762L24.351 58.3657C23.0879 55.062 22.3191 51.2184 22.2093 47.6556C22.2093 47.5692 24.6622 47.4612 27.6641 47.4396L33.1007 47.3749L33.1373 48.3466C33.1739 48.8864 33.2837 50.5275 33.3936 52.0174ZM35.7549 63.7856C35.7549 64.3254 38.2077 69.81 39.1596 71.3863C39.6355 72.1853 40.9169 73.9127 41.9785 75.2083C44.0653 77.7563 44.0836 77.7131 41.4294 76.5902C36.5786 74.5173 33.3203 72.0341 29.696 67.6507C28.2316 65.8585 27.1516 64.1958 27.1516 63.6992C27.1516 63.5696 28.854 63.4833 31.4533 63.4617C35.2241 63.4617 35.7549 63.4833 35.7549 63.7856ZM45.969 63.6128L48.5683 63.7424V70.5226V77.3028L47.9825 76.9357C45.7127 75.5754 42.5826 72.1637 40.9169 69.2486C40.1481 67.8883 38.3176 63.9151 38.3176 63.5696C38.3176 63.4185 42.8389 63.4401 45.969 63.6128Z" fill="#FBAB7E"/>
<path d="M77.2154 17.0366C77.0141 17.3173 76.8493 17.9219 76.7944 18.6561C76.7212 19.7357 76.7578 19.8869 77.2704 20.4915C77.911 21.2257 78.6432 21.3336 79.5035 20.8154C80.1991 20.3835 80.4188 19.8869 80.4188 18.6993C80.4188 17.2957 79.7781 16.6048 78.4968 16.6048C77.7829 16.6048 77.4717 16.7127 77.2154 17.0366Z" fill="#FBAB7E"/>
<path d="M5.47871 21.9598C5.20413 22.4997 4.92956 26.5376 4.91125 30.2084C4.91125 33.5121 4.98447 34.8077 5.24074 36.2544C6.2109 41.5231 8.57223 46.1009 12.0318 49.383C13.3315 50.6138 17.3952 53.6584 17.5416 53.5073C17.5782 53.4641 17.4501 52.4492 17.267 51.2616C17.084 50.074 16.8826 48.3249 16.8094 47.3748C16.6813 45.8849 16.5898 45.561 16.1504 45.0212C15.6196 44.395 10.4942 33.0155 10.4942 32.4972C10.4942 32.0438 11.1715 31.4608 11.6108 31.5472C11.922 31.5903 12.3613 32.2597 13.3681 34.3111C14.1186 35.801 15.0155 37.6796 15.3816 38.5217C15.7477 39.3422 16.3335 40.573 16.6813 41.2208L17.3219 42.4084L17.7613 39.6014C17.9992 38.0467 18.4935 35.8226 18.8413 34.635C19.189 33.4473 19.5185 32.2813 19.5734 32.0438C19.7199 31.3744 15.9674 27.1854 13.9905 25.8034C10.2014 23.1906 5.86311 21.2257 5.47871 21.9598Z" fill="#FBAB7E"/>
<path d="M92.1338 22.3053C88.8023 23.6873 85.7454 25.5659 83.9882 27.3149C82.9265 28.373 80.0526 32.5404 80.0526 33.0155C80.0526 33.1235 80.2906 33.9008 80.5835 34.7861C80.8763 35.6498 81.4072 37.8523 81.755 39.6877L82.3773 43.0131L83.5854 40.6594C84.2627 39.3638 85.4159 36.9022 86.1664 35.1748C87.7407 31.5256 87.9237 31.2665 88.6193 31.7415C89.3698 32.2597 89.2233 33.0803 87.6491 36.8591C86.0017 40.8322 85.0132 42.9267 83.3841 45.8418C82.2309 47.8715 82.1577 48.109 81.7 50.6354C81.1143 53.8096 81.0411 53.7448 83.4939 52.4924C86.9169 50.7434 90.0837 47.7203 91.8409 44.503C92.9575 42.4948 93.8728 40.1844 94.3304 38.3058C94.8978 36.0169 95.3006 31.7199 95.1541 29.5606C94.9894 27.0342 94.5501 23.3418 94.3121 22.4781C94.0741 21.636 93.7996 21.6144 92.1338 22.3053Z" fill="#FBAB7E"/>
<path d="M62.3518 30.4243C57.3363 31.0721 52.6137 34.9372 50.3439 40.2707C49.0442 43.2937 48.733 49.966 49.7032 53.2049C50.3439 55.3211 50.7466 56.2064 52.0279 58.2145C53.8584 61.1512 56.2746 63.2241 59.3498 64.4981C61.6196 65.4482 64.3654 65.6641 66.6169 65.0811C69.4724 64.3469 72.932 61.9933 74.9273 59.4021C77.4717 56.1416 79.0093 50.4194 78.5882 45.9065C78.1855 41.7606 77.1239 39.0183 74.671 35.8226C71.6873 31.9142 66.9281 29.8413 62.3518 30.4243ZM66.6901 33.5769C67.3491 33.7496 68.5755 34.2894 69.4175 34.7645C70.6622 35.4771 71.2663 36.0169 72.5476 37.5284C74.9456 40.3571 75.989 42.9914 76.1537 46.727C76.2818 49.4693 75.9523 51.4343 74.9273 54.0687C73.0602 58.8839 69.6738 61.7558 65.1342 62.4252C60.32 63.1161 55.2679 59.8988 53.1811 54.8244C51.4605 50.7002 51.2591 46.4031 52.5587 42.2789C53.9316 37.9603 57.3363 34.5918 61.3451 33.5553C62.8095 33.1666 65.2806 33.1666 66.6901 33.5769Z" fill="#FBAB7E"/>
<path d="M62.3518 35.8226C61.8393 35.9306 60.9789 36.2329 60.4481 36.4704C59.2766 37.0318 56.9885 38.8672 56.2563 39.8605C55.1763 41.3072 54.2977 43.9632 53.8767 47.0726C53.6753 48.5625 53.6936 48.8432 54.0414 50.3979C54.5905 52.7084 55.3227 54.2415 56.7322 56.0769C59.3132 59.4022 63.4135 60.6546 67.0012 59.1647C69.0331 58.3225 69.9483 57.6532 71.1564 56.0769C72.328 54.5438 72.9137 53.2266 73.4812 50.8082C74.4147 46.7703 73.6642 43.0131 71.3395 39.9469C70.4059 38.7377 67.9714 36.7511 66.6901 36.1681C65.7016 35.7146 63.6698 35.5635 62.3518 35.8226ZM63.0291 40.0764C62.242 40.4003 61.2718 41.48 60.1552 43.2506C59.4779 44.3303 58.8556 45.2804 58.7457 45.3667C58.6542 45.4315 58.6176 46.2304 58.6908 47.2453C58.7641 48.6273 58.7274 49.0807 58.5078 49.3182C58.3613 49.491 58.1783 49.6421 58.0868 49.6421C57.8488 49.6421 57.3729 49.0375 57.08 48.3466C56.9336 48.0011 56.5858 47.526 56.3295 47.2885C55.8719 46.8782 55.8536 46.7487 55.9634 45.7122C56.1282 44.3087 56.3112 44.028 57.08 44.028C57.9037 44.028 58.4163 43.4881 59.3498 41.6311L60.1369 40.0332L61.7294 39.9901C62.5898 39.9685 63.1755 40.0116 63.0291 40.0764Z" fill="#FBAB7E"/>
<path d="M4.72815 54.4142C2.6414 54.587 0.334985 55.062 0.0421071 55.4075C-0.159246 55.645 0.389899 58.4305 1.08548 60.6546C1.70785 62.6843 2.82445 65.3403 3.7763 67.0245C4.70985 68.6656 7.71184 72.2069 9.21284 73.3945C10.7871 74.6469 13.423 76.0936 15.1253 76.6119C18.5666 77.6699 22.6669 77.7131 24.0032 76.7198C24.1862 76.5903 23.3991 75.2947 22.5388 74.3446C19.2622 70.6522 14.5029 66.7007 9.56063 63.5697C8.51726 62.9219 7.62032 62.2525 7.5471 62.1229C7.29083 61.6479 7.89489 60.6546 8.42573 60.6546C8.97488 60.6546 13.7891 63.5481 16.0222 65.2107C18.4019 67.003 20.0676 68.5145 23.1062 71.6455C25.5042 74.1287 25.9801 74.7333 26.3828 75.7481C27.0235 77.3892 28.3048 78.8359 30.8126 80.7577C34.8946 83.9103 35.2057 84.1046 39.6904 86.2855C42.0518 87.43 42.308 87.5163 44.3765 88.0778C47.1405 88.8119 49.1357 88.9847 51.8632 88.7255C57.5011 88.1857 61.8027 86.5446 66.7999 83.0466C68.8318 81.6214 72.5659 78.5768 72.6758 78.2313C72.8222 77.7563 71.8521 75.9857 71.4494 75.9857C71.248 75.9857 70.168 76.763 69.0331 77.7131C64.2006 81.8158 59.9356 84.1262 54.4258 85.6809C50.2523 86.8685 44.047 85.7457 38.8301 82.8738C34.9495 80.7361 32.2953 78.728 28.5062 75.1003C25.9435 72.6387 22.3191 67.1541 20.4703 62.9651C19.2073 60.1148 17.926 58.4305 15.9124 56.9622C12.9653 54.8245 9.4325 54.0255 4.72815 54.4142Z" fill="#FBAB7E"/>
<path d="M88.4729 54.8245C85.5075 55.6018 82.8716 57.0486 80.7849 59.0351C78.4968 61.2376 78.0758 61.7774 77.8195 62.9003L77.5815 63.9367L78.1856 64.4982C79.0642 65.3403 79.9063 66.312 80.3273 66.9598L80.6934 67.5212L83.7137 65.4698C87.4296 62.9435 91.5298 60.4387 91.9509 60.4387C92.3902 60.4387 92.8112 61.4319 92.5732 61.907C92.3719 62.2957 90.157 63.8936 87.0085 65.9449C83.5123 68.2338 82.0479 69.335 82.1395 69.6589C82.1944 69.81 82.89 71.1488 83.6954 72.6387C84.5008 74.1071 85.2147 75.5754 85.2879 75.8777C85.3428 76.18 85.4526 76.4175 85.5259 76.4175C86.3679 76.4175 89.8092 74.6037 91.2919 73.3945C95.0078 70.3931 98.1562 64.5845 99.5657 58.1714C100.188 55.3859 100.17 55.1052 99.3277 54.954C95.6667 54.2631 90.8343 54.2199 88.4729 54.8245Z" fill="#FBAB7E"/>
<path d="M76.5015 62.0149C76.1171 62.382 76.0072 62.6411 76.0988 62.9218C76.2086 63.2889 76.2635 63.2889 76.6845 62.7707C76.9408 62.4684 77.1238 62.0581 77.0872 61.8638C77.0323 61.5615 76.9591 61.5831 76.5015 62.0149Z" fill="#FBAB7E"/>
<path d="M72.0717 65.3834C71.7422 65.7289 71.3395 66.096 71.1564 66.2256C70.8269 66.4415 70.8269 66.4631 71.1564 67.1756C71.3395 67.5859 71.7239 68.2337 71.9801 68.6224L72.4561 69.3134L73.3164 68.536C73.7923 68.1041 74.3049 67.4995 74.4696 67.2188C74.7625 66.7006 74.7442 66.6574 73.8838 65.7289C73.4079 65.2107 72.932 64.7788 72.8222 64.7788C72.7306 64.7788 72.3828 65.0379 72.0717 65.3834Z" fill="#FBAB7E"/>
<path d="M75.8242 69.5293C75.0737 70.2635 74.0853 71.2783 73.6094 71.7966L72.749 72.7467L73.6826 74.215C74.1951 75.0139 75.0371 76.2447 75.568 76.9573C76.0805 77.6699 77.2886 79.4189 78.2222 80.8441C80.7299 84.666 82.7801 87.6243 83.7136 88.7471C84.6838 89.9347 85.5258 90.237 86.679 89.8268C87.6675 89.4597 88.9671 88.0129 89.2234 86.9765C89.4797 85.9616 89.4431 85.8968 87.1183 82.7011C83.5123 77.7347 83.0364 77.0221 79.6316 71.6022C78.4418 69.7452 77.4168 68.2121 77.3252 68.2121C77.2337 68.2121 76.5564 68.8167 75.8242 69.5293Z" fill="#FBAB7E"/>
<path d="M20.1042 80.7361C18.7131 80.952 17.3036 81.3623 17.1755 81.5998C17.1389 81.6646 17.3768 82.226 17.7063 82.809C19.2988 85.6161 21.9347 87.3435 25.5774 87.9913C28.5245 88.5312 30.6295 88.0777 31.7095 86.7173C31.9475 86.415 32.0939 86.0048 32.039 85.832C31.7461 84.9467 27.2431 81.4702 25.852 81.0384C24.6255 80.6497 21.6785 80.4985 20.1042 80.7361Z" fill="#FBAB7E"/>
<path d="M72.3646 82.6795C69.7653 84.7308 68.5938 86.0048 68.4474 86.9117C68.3559 87.5595 68.3925 87.6027 69.1979 87.8834C69.6921 88.0346 71.1199 88.1641 72.6209 88.1641C74.7443 88.1857 75.3666 88.1209 76.1171 87.7754C77.1788 87.3004 78.4052 86.4367 78.4052 86.156C78.4052 85.6809 74.8175 80.8657 74.5429 80.9736C74.5063 80.9952 73.5178 81.751 72.3646 82.6795Z" fill="#FBAB7E"/>
</svg>
