<svg width="729" height="488" viewBox="0 0 729 488" fill="none" xmlns="http://www.w3.org/2000/svg">
<path d="M338 1.46669C313.067 4.66669 286.267 12.5334 266.8 22.2667C242.533 34.5334 224.4 48.1334 204 69.7334C172.8 102.667 156.267 135.067 147.733 179.333C143.2 203.2 142.667 237.067 146.4 257.333C157.467 316.267 194.533 367.2 252.133 402.667C267.333 412 293.333 422.933 309.067 426.667C337.6 433.2 370.533 435.067 398.267 431.333C416.8 428.933 425.2 426.8 443.6 420C460.933 413.467 473.733 406.667 488.8 396.133C512.267 379.467 515.2 374.533 507.467 365.333L503.733 360.667L498.533 365.333C478.933 383.067 445.467 400.933 415.2 409.867L408 412L422.933 397.067C431.067 388.8 441.467 376.667 446 370L454.133 358L446.4 356.533C442.133 355.733 437.2 354.667 435.333 354.133C432.533 353.333 431.6 353.867 429.6 357.333C425.867 363.6 409.467 382.4 399.6 391.733C390.667 400.133 374.267 412.8 373.467 411.867C373.2 411.6 372.667 392 372.267 368.533L371.6 325.6L375.467 324.8C377.6 324.4 379.333 323.6 379.333 322.933C379.333 322.267 376 317.6 371.867 312.533C367.733 307.467 362.133 300.533 359.333 297.067L354.267 290.8L354.4 297.333C354.4 300.933 354 304.4 353.467 304.933C352.933 305.6 334.533 306.133 312.667 306.4L272.933 306.8L270.133 296C264.267 274.533 260.8 250 260.667 230.267V225.333H299.867C321.467 225.333 339.467 224.933 339.733 224.267C340 223.733 340.667 219.6 341.2 214.933L342.133 206.667H302H262V201.467C262 186.133 267.733 148.533 272.267 133.6L274.533 126.667H310.8C330.667 126.667 348.8 126.267 351.067 125.867L355.067 125.067L356 141.067L356.933 156.933L365.467 148.133L374 139.467L373.2 132.667L372.4 125.867H379.733C385.867 125.867 388.267 125.067 394.8 120.933C399.2 118.133 405.467 114.267 408.933 112.267C412.4 110.267 415.333 108.267 415.333 107.6C415.333 107.067 405.733 106.667 394 106.667H372.667V63.2V19.8667L379.467 23.4667C400.267 34.9334 426.933 64.5334 440.533 91.7334C442.933 96.4 445.467 100.4 446.4 100.667C447.333 101.067 451.733 100.8 456.4 100.267L464.8 99.3334L458.933 87.3334C448.267 65.4667 437.333 50.1334 419.467 31.6C414.667 26.6667 411.2 22.6667 411.6 22.6667C414.667 22.6667 443.2 33.2 453.333 38C478.4 50 506 71.8667 523.2 93.3334L532.267 104.667L516.8 105.333L501.333 106L508.667 109.2C512.667 110.8 520.667 115.2 526.4 118.933C532.133 122.533 538.933 125.867 541.467 126.267C545.467 126.933 548.267 129.467 559.733 142.667L573.333 158.267L573.733 152.533C574 148 572.8 143.6 568.667 133.6C557.2 106.8 544.8 89.2 519.467 63.8667C484.4 28.9334 451.867 12 403.733 3.86669C379.333 -0.133311 357.2 -1.06664 338 1.46669ZM316 24.9334C298.4 40.1334 291.067 49.0667 279.467 69.3334C274.267 78.5334 268.533 90.4 266.8 95.8667L263.733 105.6L234.933 106.267C219.067 106.667 204.667 106.667 202.667 106.133C199.333 105.333 199.333 105.2 201.333 101.333C202.533 99.0667 206.933 93.2 211.2 88.2667C236.667 58.9334 260.533 42.8 301.333 27.8667C310.8 24.2667 318.933 21.4667 319.333 21.4667C319.733 21.4667 318.267 22.9334 316 24.9334ZM354.267 37.6C354.4 45.8667 354.533 64.8 354.533 79.6L354.667 106.667H318.267C298.133 106.667 282 106.267 282.267 105.6C297.333 74.4 308.133 57.4667 320.533 45.3334C329.6 36.4 348.8 22.6667 352.133 22.6667C353.6 22.6667 354 25.7334 354.267 37.6ZM255.733 126.267C256.133 126.933 254.667 132.4 252.667 138.667C248.4 151.333 245.2 170.8 243.867 192.133L242.933 206.4L203.2 206.133C164.133 206 163.467 206 164 203.333C164.267 201.867 164.8 195.733 165.333 189.733C166.133 176.933 172.4 155.2 180.133 138.4C184.4 128.933 186 126.667 188.667 126.267C194.8 125.333 255.2 125.333 255.733 126.267ZM243.467 253.333C245.067 271.6 247.067 282.8 251.2 296C252.667 300.667 253.733 304.667 253.6 304.8C253.467 304.933 237.733 305.467 218.667 305.867L184 306.8L177.6 292.533C168.4 272.133 162.8 248.4 162 226.4C162 225.867 179.867 225.2 201.733 225.067L241.333 224.667L241.6 230.667C241.867 234 242.667 244.133 243.467 253.333ZM260.667 326C260.667 329.333 278.533 363.2 285.467 372.933C288.933 377.867 298.267 388.533 306 396.533C321.2 412.267 321.333 412 302 405.067C266.667 392.267 242.933 376.933 216.533 349.867C205.867 338.8 198 328.533 198 325.467C198 324.667 210.4 324.133 229.333 324C256.8 324 260.667 324.133 260.667 326ZM335.067 324.933L354 325.733V367.6V409.467L349.733 407.2C333.2 398.8 310.4 377.733 298.267 359.733C292.667 351.333 279.333 326.8 279.333 324.667C279.333 323.733 312.267 323.867 335.067 324.933Z" fill="#FBAB7E"/>
<path d="M562.667 37.3333C561.2 39.0666 560 42.8 559.6 47.3333C559.067 54 559.333 54.9333 563.067 58.6666C567.733 63.2 573.067 63.8666 579.333 60.6666C584.4 58 586 54.9333 586 47.6C586 38.9333 581.333 34.6666 572 34.6666C566.8 34.6666 564.533 35.3333 562.667 37.3333Z" fill="#FBAB7E"/>
<path d="M40.1333 67.7334C38.1333 71.0668 36.1333 96.0001 35.9999 118.667C35.9999 139.067 36.5333 147.067 38.3999 156C45.4666 188.533 62.6666 216.8 87.8666 237.067C97.3333 244.667 126.933 263.467 128 262.533C128.267 262.267 127.333 256 126 248.667C124.667 241.333 123.2 230.533 122.667 224.667C121.733 215.467 121.067 213.467 117.867 210.133C114 206.267 76.6666 136 76.6666 132.8C76.6666 130 81.5999 126.4 84.7999 126.933C87.0666 127.2 90.2666 131.333 97.5999 144C103.067 153.2 109.6 164.8 112.267 170C114.933 175.067 119.2 182.667 121.733 186.667L126.4 194L129.6 176.667C131.333 167.067 134.933 153.333 137.467 146C140 138.667 142.4 131.467 142.8 130C143.867 125.867 116.533 100 102.133 91.4668C74.5333 75.3334 42.9333 63.2001 40.1333 67.7334Z" fill="#FBAB7E"/>
<path d="M671.333 69.8668C647.067 78.4001 624.8 90.0001 612 100.8C604.267 107.333 583.333 133.067 583.333 136C583.333 136.667 585.067 141.467 587.2 146.933C589.333 152.267 593.2 165.867 595.733 177.2L600.267 197.733L609.067 183.2C614 175.2 622.4 160 627.867 149.333C639.333 126.8 640.667 125.2 645.733 128.133C651.2 131.333 650.133 136.4 638.667 159.733C626.667 184.267 619.467 197.2 607.6 215.2C599.2 227.733 598.667 229.2 595.333 244.8C591.067 264.4 590.533 264 608.4 256.267C633.333 245.467 656.4 226.8 669.2 206.933C677.333 194.533 684 180.267 687.333 168.667C691.467 154.533 694.4 128 693.333 114.667C692.133 99.0668 688.933 76.2668 687.2 70.9334C685.467 65.7334 683.467 65.6001 671.333 69.8668Z" fill="#FBAB7E"/>
<path d="M454.4 120C417.867 124 383.467 147.867 366.933 180.8C357.467 199.467 355.2 240.667 362.267 260.667C366.933 273.733 369.867 279.2 379.2 291.6C392.533 309.733 410.133 322.533 432.533 330.4C449.067 336.267 469.067 337.6 485.467 334C506.267 329.467 531.467 314.933 546 298.933C564.533 278.8 575.733 243.467 572.667 215.6C569.733 190 562 173.067 544.133 153.333C522.4 129.2 487.733 116.4 454.4 120ZM486 139.467C490.8 140.533 499.733 143.867 505.867 146.8C514.933 151.2 519.333 154.533 528.667 163.867C546.133 181.333 553.733 197.6 554.933 220.667C555.867 237.6 553.467 249.733 546 266C532.4 295.733 507.733 313.467 474.667 317.6C439.6 321.867 402.8 302 387.6 270.667C375.067 245.2 373.6 218.667 383.067 193.2C393.067 166.533 417.867 145.733 447.067 139.333C457.733 136.933 475.733 136.933 486 139.467Z" fill="#FBAB7E"/>
<path d="M454.4 153.333C450.667 154 444.4 155.867 440.533 157.333C432 160.8 415.333 172.133 410 178.267C402.133 187.2 395.733 203.6 392.667 222.8C391.2 232 391.333 233.733 393.867 243.333C397.867 257.6 403.2 267.067 413.467 278.4C432.267 298.933 462.133 306.667 488.267 297.467C503.067 292.267 509.733 288.133 518.533 278.4C527.067 268.933 531.333 260.8 535.467 245.867C542.267 220.933 536.8 197.733 519.867 178.8C513.067 171.333 495.333 159.067 486 155.467C478.8 152.667 464 151.733 454.4 153.333ZM459.333 179.6C453.6 181.6 446.533 188.267 438.4 199.2C433.467 205.867 428.933 211.733 428.133 212.267C427.467 212.667 427.2 217.6 427.733 223.867C428.267 232.4 428 235.2 426.4 236.667C425.333 237.733 424 238.667 423.333 238.667C421.6 238.667 418.133 234.933 416 230.667C414.933 228.533 412.4 225.6 410.533 224.133C407.2 221.6 407.067 220.8 407.867 214.4C409.067 205.733 410.4 204 416 204C422 204 425.733 200.667 432.533 189.2L438.267 179.333L449.867 179.067C456.133 178.933 460.4 179.2 459.333 179.6Z" fill="#FBAB7E"/>
<path d="M34.6666 268.133C19.4666 269.2 2.66661 272.133 0.533273 274.267C-0.933394 275.733 3.06661 292.933 8.13327 306.667C12.6666 319.2 20.7999 335.6 27.7333 346C34.5333 356.133 56.3999 378 67.3333 385.333C78.7999 393.067 97.9999 402 110.4 405.2C135.467 411.733 165.333 412 175.067 405.867C176.4 405.067 170.667 397.067 164.4 391.2C140.533 368.4 105.867 344 69.8666 324.667C62.2666 320.667 55.7333 316.533 55.1999 315.733C53.3333 312.8 57.7333 306.667 61.5999 306.667C65.5999 306.667 100.667 324.533 116.933 334.8C134.267 345.867 146.4 355.2 168.533 374.533C186 389.867 189.467 393.6 192.4 399.867C197.067 410 206.4 418.933 224.667 430.8C254.4 450.267 256.667 451.467 289.333 464.933C306.533 472 308.4 472.533 323.467 476C343.6 480.533 358.133 481.6 378 480C419.067 476.667 450.4 466.533 486.8 444.933C501.6 436.133 528.8 417.333 529.6 415.2C530.667 412.267 523.6 401.333 520.667 401.333C519.2 401.333 511.333 406.133 503.067 412C467.867 437.333 436.8 451.6 396.667 461.2C366.267 468.533 321.067 461.6 283.067 443.867C254.8 430.667 235.467 418.267 207.867 395.867C189.2 380.667 162.8 346.8 149.333 320.933C140.133 303.333 130.8 292.933 116.133 283.867C94.6666 270.667 68.9333 265.733 34.6666 268.133Z" fill="#FBAB7E"/>
<path d="M644.667 270.667C623.067 275.467 603.867 284.4 588.667 296.667C572 310.267 568.933 313.6 567.067 320.533L565.333 326.933L569.733 330.4C576.133 335.6 582.267 341.6 585.333 345.6L588 349.067L610 336.4C637.067 320.8 666.933 305.333 670 305.333C673.2 305.333 676.267 311.467 674.533 314.4C673.067 316.8 656.933 326.667 634 339.333C608.533 353.467 597.867 360.267 598.533 362.267C598.933 363.2 604 371.467 609.867 380.667C615.733 389.733 620.933 398.8 621.467 400.667C621.867 402.533 622.667 404 623.2 404C629.333 404 654.4 392.8 665.2 385.333C692.267 366.8 715.2 330.933 725.467 291.333C730 274.133 729.867 272.4 723.733 271.467C697.067 267.2 661.867 266.933 644.667 270.667Z" fill="#FBAB7E"/>
<path d="M557.467 315.067C554.667 317.333 553.867 318.933 554.533 320.667C555.333 322.933 555.733 322.933 558.8 319.733C560.667 317.867 562 315.333 561.733 314.133C561.333 312.267 560.8 312.4 557.467 315.067Z" fill="#FBAB7E"/>
<path d="M525.2 335.867C522.8 338 519.867 340.267 518.533 341.067C516.133 342.4 516.133 342.533 518.533 346.933C519.867 349.467 522.667 353.467 524.533 355.867L528 360.133L534.267 355.333C537.733 352.667 541.467 348.933 542.667 347.2C544.8 344 544.667 343.733 538.4 338C534.933 334.8 531.467 332.133 530.667 332.133C530 332.133 527.467 333.733 525.2 335.867Z" fill="#FBAB7E"/>
<path d="M552.533 361.467C547.067 366 539.867 372.267 536.4 375.467L530.133 381.333L536.933 390.4C540.667 395.333 546.8 402.933 550.667 407.333C554.4 411.733 563.2 422.533 570 431.333C588.267 454.933 603.2 473.2 610 480.133C617.067 487.467 623.2 489.333 631.6 486.8C638.8 484.533 648.267 475.6 650.133 469.2C652 462.933 651.733 462.533 634.8 442.8C608.533 412.133 605.067 407.733 580.267 374.267C571.6 362.8 564.133 353.333 563.467 353.333C562.8 353.333 557.867 357.067 552.533 361.467Z" fill="#FBAB7E"/>
<path d="M146.667 430.667C136.533 432 126.267 434.533 125.333 436C125.067 436.4 126.8 439.867 129.2 443.467C140.8 460.8 160 471.467 186.533 475.467C208 478.8 223.333 476 231.2 467.6C232.933 465.733 234 463.2 233.6 462.133C231.467 456.667 198.667 435.2 188.533 432.533C179.6 430.133 158.133 429.2 146.667 430.667Z" fill="#FBAB7E"/>
<path d="M527.333 442.667C508.4 455.333 499.867 463.2 498.8 468.8C498.133 472.8 498.4 473.067 504.267 474.8C507.867 475.733 518.267 476.533 529.2 476.533C544.667 476.667 549.2 476.267 554.667 474.133C562.4 471.2 571.333 465.867 571.333 464.133C571.333 461.2 545.2 431.467 543.2 432.133C542.933 432.267 535.733 436.933 527.333 442.667Z" fill="#FBAB7E"/>
</svg>
